HIERARCHY
ROOT joint_0
{
	OFFSET 0.000000 0.000000 0.000000
	CHANNELS 6 Xposition Yposition Zposition Zrotation Yrotation Xrotation 
	JOINT joint_1
	{
		OFFSET 7.566162 2.250183 114.799927
		CHANNELS 3 Zrotation Yrotation Xrotation
		JOINT joint_2
		{
			OFFSET -5.201660 -0.414001 104.936035
			CHANNELS 3 Zrotation Yrotation Xrotation
			JOINT joint_3
			{
				OFFSET -6.923584 -0.419739 104.718018
				CHANNELS 3 Zrotation Yrotation Xrotation
				JOINT joint_4
				{
					OFFSET 3.108887 2.881104 149.449951
					CHANNELS 3 Zrotation Yrotation Xrotation
					JOINT joint_5
					{
						OFFSET 19.988770 5.920349 90.786987
						CHANNELS 3 Zrotation Yrotation Xrotation
						End Site
						{
							OFFSET 0.000000 0.000000 0.000000
						}
					}
				}
				JOINT joint_6
				{
					OFFSET 9.283936 -30.015930 84.410034
					CHANNELS 3 Zrotation Yrotation Xrotation
					JOINT joint_7
					{
						OFFSET 47.243164 -155.716736 -23.241089
						CHANNELS 3 Zrotation Yrotation Xrotation
						JOINT joint_8
						{
							OFFSET 31.323730 -15.356873 -268.798950
							CHANNELS 3 Zrotation Yrotation Xrotation
							JOINT joint_9
							{
								OFFSET 28.122314 -2.114624 -262.450012
								CHANNELS 3 Zrotation Yrotation Xrotation
								End Site
								{
									OFFSET 0.000000 0.000000 0.000000
								}
							}
						}
					}
				}
				JOINT joint_10
				{
					OFFSET -5.580566 33.311218 83.498047
					CHANNELS 3 Zrotation Yrotation Xrotation
					JOINT joint_11
					{
						OFFSET -22.773438 160.515381 -27.138062
						CHANNELS 3 Zrotation Yrotation Xrotation
						JOINT joint_12
						{
							OFFSET 27.004395 30.848877 -267.937988
							CHANNELS 3 Zrotation Yrotation Xrotation
							JOINT joint_13
							{
								OFFSET 32.625000 14.824585 -261.518005
								CHANNELS 3 Zrotation Yrotation Xrotation
								End Site
								{
									OFFSET 0.000000 0.000000 0.000000
								}
							}
						}
					}
				}
			}
		}
	}
	JOINT joint_14
	{
		OFFSET 20.623535 -83.447632 -106.174011
		CHANNELS 3 Zrotation Yrotation Xrotation
		JOINT joint_15
		{
			OFFSET 0.661865 -23.563843 -459.915039
			CHANNELS 3 Zrotation Yrotation Xrotation
			JOINT joint_16
			{
				OFFSET -23.461670 -28.727966 -444.760971
				CHANNELS 3 Zrotation Yrotation Xrotation
				JOINT joint_17
				{
					OFFSET 178.992920 54.047363 -80.113001
					CHANNELS 3 Zrotation Yrotation Xrotation
					End Site
					{
						OFFSET 0.000000 0.000000 0.000000
					}
				}
			}
		}
	}
	JOINT joint_18
	{
		OFFSET -19.571533 84.686279 -105.380005
		CHANNELS 3 Zrotation Yrotation Xrotation
		JOINT joint_19
		{
			OFFSET -22.949951 3.639404 -459.933044
			CHANNELS 3 Zrotation Yrotation Xrotation
			JOINT joint_20
			{
				OFFSET -33.690674 4.092651 -445.010971
				CHANNELS 3 Zrotation Yrotation Xrotation
				JOINT joint_21
				{
					OFFSET 187.419678 18.953857 -76.759001
					CHANNELS 3 Zrotation Yrotation Xrotation
					End Site
					{
						OFFSET 0.000000 0.000000 0.000000
					}
				}
			}
		}
	}
}
MOTION
Frames: 10
Frame Time: 0.016667
-3372.533691 899.865295 1111.769043 -10.978192 1.439346 -0.613489 0.445726 -0.158575 2.460253 0.291076 0.026513 -0.486037 0.346539 -0.069521 0.353620 0.042147 -1.168816 0.144352 0.000000 0.000000 0.000000 -0.939134 3.389246 -0.406204 0.021845 3.417632 0.139768 0.504500 -0.559837 3.959658 0.000000 0.000000 0.000000 0.773538 3.266348 -1.408150 0.193242 3.138762 -1.673981 -0.237812 -0.638755 -1.651314 0.000000 0.000000 0.000000 -0.103933 0.009661 -0.145065 -0.014241 -1.739094 0.322728 -0.089092 -0.764527 0.190987 0.000000 0.000000 0.000000 2.622541 -1.933432 1.497037 2.685214 1.543016 0.543163 2.612191 -0.655453 1.135780 0.000000 0.000000 0.000000 
-3371.286621 900.226562 1111.609985 -10.923427 1.826344 -0.700853 0.395084 -0.151562 2.435123 0.242440 0.038913 -0.488681 0.298257 -0.067832 0.353621 0.046017 -1.776147 0.312762 0.000000 0.000000 0.000000 -0.615772 3.488945 -0.526956 0.039502 3.617033 0.194116 0.559788 -0.835872 4.323155 0.000000 0.000000 0.000000 0.890005 3.398817 -1.321173 0.191215 3.207363 -1.899351 -0.258088 -0.876945 -1.697037 0.000000 0.000000 0.000000 -0.111937 -0.306974 -0.090524 -0.032250 -1.806266 0.341075 -0.110828 -0.774958 0.184436 0.000000 0.000000 0.000000 2.611716 -2.284601 1.550839 2.678662 1.505523 0.533921 2.606178 -0.649194 1.132754 0.000000 0.000000 0.000000 
-3370.237061 900.698853 1111.461060 -10.893997 2.189543 -0.788771 0.296315 -0.015727 2.416305 0.142431 0.006393 -0.500258 0.199563 -0.020800 0.357816 0.049919 -2.282422 0.455817 0.000000 0.000000 0.000000 -0.164269 3.456910 -0.596733 0.058759 3.680143 0.220961 0.597540 -0.869658 4.597538 0.000000 0.000000 0.000000 1.183586 3.433150 -1.304872 0.180969 3.174783 -1.994526 -0.272734 -0.946512 -1.786311 0.000000 0.000000 0.000000 -0.140263 -0.630935 -0.052919 -0.072263 -1.849327 0.373406 -0.152131 -0.772946 0.165395 0.000000 0.000000 0.000000 2.644308 -2.635696 1.623328 2.717401 1.511963 0.507553 2.641192 -0.703719 1.152616 0.000000 0.000000 0.000000 
-3369.639893 901.408020 1111.339966 -10.906629 2.492475 -0.874813 0.114101 0.352386 2.412583 -0.048200 -0.116381 -0.524234 0.011555 0.114712 0.369127 0.051006 -2.591921 0.549089 0.000000 0.000000 0.000000 0.495835 3.185517 -0.587354 0.079188 3.499540 0.207728 0.600705 -0.435639 4.695966 0.000000 0.000000 0.000000 1.801387 3.293677 -1.417945 0.154592 2.961249 -1.861709 -0.278361 -0.697182 -1.970656 0.000000 0.000000 0.000000 -0.209544 -0.952910 -0.055780 -0.155351 -1.853287 0.441088 -0.231950 -0.745494 0.121487 0.000000 0.000000 0.000000 2.757903 -2.969809 1.725809 2.840129 1.590687 0.450592 2.752563 -0.870669 1.215018 0.000000 0.000000 0.000000 
-3369.239258 902.228149 1111.228027 -10.944935 2.767265 -0.960520 -0.113334 0.857982 2.405306 -0.289994 -0.287684 -0.552571 -0.227302 0.294092 0.383987 0.050468 -2.803917 0.616778 0.000000 0.000000 0.000000 1.282887 2.779409 -0.540097 0.101184 3.185934 0.174567 0.588433 0.242923 4.709057 0.000000 0.000000 0.000000 2.592820 3.058504 -1.585961 0.119614 2.644648 -1.617443 -0.277514 -0.279705 -2.199034 0.000000 0.000000 0.000000 -0.299074 -1.277258 -0.076258 -0.260207 -1.833639 0.523344 -0.331072 -0.705492 0.065185 0.000000 0.000000 0.000000 2.914770 -3.298928 1.843996 3.007570 1.712278 0.378157 2.904586 -1.099311 1.300241 0.000000 0.000000 0.000000 
-3368.677979 902.853455 1111.128052 -10.988153 2.994038 -1.032013 -0.303225 1.353410 2.355415 -0.493616 -0.425333 -0.564205 -0.429833 0.442009 0.390185 0.052172 -3.000345 0.669380 0.000000 0.000000 0.000000 1.953169 2.420203 -0.468862 0.116011 2.888940 0.121875 0.588131 0.732782 4.769120 0.000000 0.000000 0.000000 3.246603 2.830634 -1.702439 0.092181 2.348294 -1.401612 -0.274351 0.029917 -2.353515 0.000000 0.000000 0.000000 -0.365665 -1.547354 -0.077259 -0.341266 -1.786446 0.564909 -0.405477 -0.690343 0.027429 0.000000 0.000000 0.000000 3.041914 -3.576998 1.941375 3.143342 1.854526 0.319814 3.026873 -1.307117 1.371186 0.000000 0.000000 0.000000 
-3367.905273 903.147217 1111.056030 -11.033124 3.139548 -1.079245 -0.430067 1.817004 2.246506 -0.630448 -0.500346 -0.553736 -0.568086 0.538170 0.379135 0.058752 -3.201737 0.702686 0.000000 0.000000 0.000000 2.439760 2.165380 -0.361134 0.117302 2.655513 0.059432 0.600727 0.862443 4.873296 0.000000 0.000000 0.000000 3.670419 2.627187 -1.731750 0.073896 2.093439 -1.259529 -0.264171 0.156885 -2.339360 0.000000 0.000000 0.000000 -0.388429 -1.722495 -0.046186 -0.376258 -1.701719 0.539630 -0.433033 -0.717152 0.023246 0.000000 0.000000 0.000000 3.107350 -3.764474 1.998135 3.213526 2.013215 0.290989 3.088142 -1.458080 1.411448 0.000000 0.000000 0.000000 
-3366.972168 903.248108 1110.994995 -11.082421 3.239577 -1.113263 -0.522379 2.266449 2.100764 -0.730926 -0.544440 -0.527520 -0.671756 0.608513 0.355832 0.067432 -3.388329 0.721842 0.000000 0.000000 0.000000 2.817481 1.956421 -0.226065 0.109820 2.437925 -0.021994 0.623372 0.803105 5.025145 0.000000 0.000000 0.000000 3.962823 2.430923 -1.707545 0.061251 1.857175 -1.144096 -0.252769 0.175843 -2.249855 0.000000 0.000000 0.000000 -0.388133 -1.846179 0.004390 -0.387380 -1.589371 0.473528 -0.435842 -0.770192 0.038020 0.000000 0.000000 0.000000 3.143624 -3.903885 2.036715 3.252747 2.193809 0.275042 3.120130 -1.588667 1.437677 0.000000 0.000000 0.000000 
-3365.674072 903.266174 1110.901978 -11.125170 3.381872 -1.153595 -0.581392 2.607547 1.952801 -0.795509 -0.571816 -0.494237 -0.740292 0.657837 0.328750 0.074205 -3.587652 0.755313 0.000000 0.000000 0.000000 3.060915 1.800128 -0.102448 0.098784 2.241454 -0.151864 0.675436 0.632697 5.366269 0.000000 0.000000 0.000000 4.109724 2.289763 -1.632901 0.061478 1.693194 -1.045819 -0.261691 0.038639 -2.249029 0.000000 0.000000 0.000000 -0.383646 -1.993083 0.075308 -0.395620 -1.474410 0.388326 -0.436078 -0.837109 0.058137 0.000000 0.000000 0.000000 3.175229 -4.077260 2.087154 3.288458 2.390286 0.251385 3.147761 -1.725810 1.462767 0.000000 0.000000 0.000000 
-3363.956299 903.193420 1110.759033 -11.160810 3.615439 -1.209848 -0.595694 2.768511 1.815566 -0.809888 -0.581481 -0.452550 -0.759689 0.681851 0.295545 0.078300 -3.806517 0.809677 0.000000 0.000000 0.000000 3.118838 1.701200 0.003144 0.089305 2.066959 -0.322839 0.759557 0.412205 5.912643 0.000000 0.000000 0.000000 4.061398 2.218678 -1.493191 0.075046 1.619815 -0.986366 -0.290937 -0.250959 -2.342846 0.000000 0.000000 0.000000 -0.378326 -2.211672 0.181472 -0.406528 -1.361471 0.277237 -0.439965 -0.918048 0.080873 0.000000 0.000000 0.000000 3.210293 -4.343258 2.166202 3.330179 2.618471 0.211673 3.179284 -1.880774 1.491213 0.000000 0.000000 0.000000 
